<svg width="1077" height="280" viewBox="0 0 1077 280" fill="none" xmlns="http://www.w3.org/2000/svg">
<path d="M342.98 211.163C331.334 210.676 322.798 211.058 313.412 207.095C304.025 203.132 295.838 197.656 288.85 190.668C281.758 183.681 276.231 175.546 272.267 166.263C268.304 156.877 266.322 147.021 266.322 136.696C266.322 126.266 268.304 116.41 272.267 107.128C276.231 97.7411 281.758 89.5539 288.85 82.5661C295.838 75.5783 304.025 70.1028 313.412 66.1396C322.798 62.1763 332.654 60.1947 342.98 60.1947C353.201 60.1947 362.952 62.1763 372.235 66.1396C381.621 69.9985 389.861 75.4219 396.953 82.4097C403.94 89.3975 409.416 97.5325 413.379 106.815C417.447 116.097 419.533 125.849 419.637 136.07C419.637 139.824 418.385 142.953 415.882 145.456C413.379 147.959 410.146 149.211 406.183 149.211H296.985C298.133 154.53 300.114 159.432 302.93 163.917C305.746 168.401 309.188 172.365 313.255 175.806C317.427 179.248 321.478 180.793 327.335 182.377C333.257 183.979 336.849 183.574 342.98 183.785C348.109 183.962 350.873 183.541 356.121 183.629C356.121 194.381 356.121 200.41 356.121 211.163C350.989 211.163 348.107 211.377 342.98 211.163ZM391.321 126.057C390.382 120.53 388.505 115.367 385.689 110.569C382.873 105.668 379.327 101.444 375.051 97.8976C370.774 94.3515 365.925 91.5877 360.501 89.6061C355.078 87.6245 349.394 86.6337 343.449 86.6337C337.4 86.6337 331.664 87.6245 326.24 89.6061C320.921 91.5877 316.176 94.4037 312.004 98.054C307.832 101.6 304.39 105.824 301.679 110.726C298.967 115.524 297.142 120.634 296.203 126.057H391.321Z" fill="#0F62FE"/>
<path d="M356.121 211.163C356.121 200.41 356.121 194.381 356.121 183.629C416.361 183.629 510.374 183.629 510.374 183.629C512.669 183.629 514.963 183.264 517.258 182.533C519.552 181.699 521.638 180.5 523.515 178.935C527.687 175.493 529.773 170.957 529.773 165.325C529.773 159.797 527.791 155.573 523.828 152.653C519.969 149.941 515.537 148.481 510.531 148.272H481.432C475.383 148.272 469.699 147.073 464.38 144.674C459.061 142.275 454.367 138.938 450.3 134.662C446.337 130.594 443.26 125.849 441.07 120.425C438.879 114.898 437.784 109.161 437.784 103.217C437.784 97.3761 438.932 91.8484 441.226 86.6337C443.521 81.3146 446.649 76.6734 450.613 72.7102C454.576 68.747 459.217 65.6702 464.536 63.48C469.855 61.2898 475.487 60.1947 481.432 60.1947H535.718C539.681 60.1947 542.966 61.3941 545.574 63.7929C548.181 66.1917 549.485 69.477 549.485 73.6489C549.485 77.6121 548.233 80.9495 545.73 83.6612C543.123 86.4772 540.046 87.8852 536.5 87.8852H481.589C477.208 87.8852 473.401 89.5018 470.168 92.7349C467.039 96.0724 465.475 99.8792 465.475 104.155C465.475 108.953 467.091 112.812 470.325 115.732C473.662 118.861 477.417 120.425 481.589 120.425H513.034C519.187 120.425 525.028 121.625 530.555 124.024C536.083 126.422 540.828 129.76 544.792 134.036C548.755 138.208 551.832 143.11 554.022 148.742C556.212 154.269 557.307 160.006 557.307 165.95C557.307 172.104 556.212 177.944 554.022 183.472C551.832 188.895 548.703 193.641 544.635 197.708C540.568 201.985 535.77 205.322 530.242 207.721C524.819 210.015 518.978 211.163 512.721 211.163C512.721 211.163 417.277 211.163 356.121 211.163Z" fill="#0F62FE"/>
<path d="M655.084 213.04C644.55 213.04 634.642 211.163 625.36 207.408C616.078 203.549 607.943 198.178 600.955 191.294C593.863 184.306 588.335 176.224 584.372 167.046C580.409 157.868 578.427 148.064 578.427 137.634V28.9061C578.427 25.0471 579.835 21.7097 582.651 18.8937C585.363 16.182 588.596 14.8262 592.35 14.8262C594.228 14.8262 596.053 15.1912 597.826 15.9213C599.599 16.6513 601.163 17.6421 602.519 18.8937C605.335 21.7097 606.743 25.0471 606.743 28.9061V59.569H668.851C672.71 59.569 675.995 60.9769 678.707 63.7929C681.419 66.5046 682.775 69.7899 682.775 73.6489C682.775 77.4035 681.419 80.5845 678.707 83.1919C676.1 85.695 672.814 86.9465 668.851 86.9465H606.743V137.947C606.743 144.518 607.943 150.723 610.341 156.564C612.844 162.3 616.338 167.358 620.823 171.739C625.204 176.119 630.314 179.509 636.155 181.908C642.099 184.306 648.409 185.506 655.084 185.506C667.808 185.506 683.349 179.198 692.474 170.331C694.014 168.742 713.907 188.322 712.342 189.886C698.171 203.588 674.796 213.04 655.084 213.04Z" fill="#0F62FE"/>
<path d="M720.79 41.7344C716.514 41.7344 712.812 40.17 709.683 37.0411C706.554 33.9122 704.99 30.2619 704.99 26.0901C704.99 21.814 706.554 18.1115 709.683 14.9826C712.707 11.958 716.41 10.4457 720.79 10.4457C724.962 10.4457 728.665 11.958 731.898 14.9826C735.027 17.9029 736.591 21.6054 736.591 26.0901C736.591 30.4705 735.027 34.1208 731.898 37.0411C728.56 40.17 724.858 41.7344 720.79 41.7344Z" fill="#0F62FE"/>
<path d="M798.386 279.528C794.527 279.528 791.19 278.12 788.374 275.304C787.018 274.053 785.923 272.541 785.089 270.767C784.254 268.994 783.837 267.221 783.837 265.448C783.837 260.651 786.497 256.427 791.816 252.776C796.3 249.752 802.35 247.249 809.963 245.267C812.988 244.537 815.908 244.068 818.724 243.859C821.644 243.651 825.19 243.546 829.362 243.546H836.559C838.123 243.651 840.626 243.703 844.068 243.703C868.786 243.703 881.145 234.42 881.145 215.856C881.145 211.788 880.623 208.347 879.58 205.531C879.163 204.488 878.59 203.393 877.86 202.245L876.139 199.586C863.31 208.555 848.918 213.04 832.96 213.04C822.635 213.04 812.831 211.11 803.549 207.251C794.371 203.288 786.236 197.761 779.144 190.668C772.052 183.681 766.524 175.546 762.561 166.263C758.598 156.877 756.616 147.021 756.616 136.696C756.616 126.37 758.598 116.566 762.561 107.284C766.524 97.8976 772.052 89.6582 779.144 82.5661C786.236 75.474 794.371 69.9985 803.549 66.1396C812.831 62.1763 822.635 60.1947 832.96 60.1947C843.39 60.1947 853.246 62.1763 862.528 66.1396C871.915 70.1028 880.102 75.5783 887.09 82.5661C894.078 89.6582 899.501 97.8454 903.36 107.128C907.323 116.41 909.305 126.266 909.305 136.696C909.305 152.027 904.924 166.315 896.163 179.561C904.299 188.322 908.366 200.316 908.366 215.543C908.366 224.304 906.906 232.178 903.986 239.166C901.065 246.154 896.946 252.099 891.627 257C886.62 261.694 880.832 265.24 874.261 267.639C867.691 270.037 860.807 271.237 853.611 271.237C849.648 271.237 845.58 270.924 841.408 270.298C836.715 269.777 832.543 269.516 828.893 269.516C820.132 269.516 812.727 271.758 806.678 276.243C804.383 278.433 801.62 279.528 798.386 279.528ZM832.96 185.349C839.74 185.349 846.102 184.098 852.046 181.595C857.991 179.092 863.206 175.546 867.691 170.957C872.175 166.472 875.617 161.309 878.016 155.469C880.519 149.524 881.771 143.266 881.771 136.696C881.771 130.125 880.519 123.919 878.016 118.079C875.617 112.134 872.175 106.919 867.691 102.434C863.206 97.9497 857.991 94.4558 852.046 91.9527C846.102 89.4496 839.74 88.1981 832.96 88.1981C826.285 88.1981 819.976 89.4496 814.031 91.9527C808.19 94.4558 803.027 97.9497 798.543 102.434C794.058 106.919 790.564 112.134 788.061 118.079C785.558 123.919 784.306 130.125 784.306 136.696C784.306 143.266 785.558 149.524 788.061 155.469C790.564 161.309 794.058 166.472 798.543 170.957C803.027 175.546 808.19 179.092 814.031 181.595C819.976 184.098 826.285 185.349 832.96 185.349Z" fill="#0F62FE"/>
<path d="M1000.04 213.04C989.717 213.04 979.913 211.11 970.631 207.251C961.453 203.288 953.317 197.761 946.225 190.668C939.133 183.681 933.606 175.546 929.642 166.263C925.679 156.877 923.697 147.021 923.697 136.696C923.697 126.37 925.679 116.566 929.642 107.284C933.606 97.8976 939.133 89.6582 946.225 82.5661C953.317 75.474 961.453 69.9985 970.631 66.1396C979.913 62.1763 989.717 60.1947 1000.04 60.1947C1010.47 60.1947 1020.33 62.1763 1029.61 66.1396C1039 70.1028 1047.18 75.5783 1054.17 82.5661C1061.16 89.6582 1066.58 97.8454 1070.44 107.128C1074.4 116.41 1076.39 126.266 1076.39 136.696C1076.39 147.125 1074.4 156.981 1070.44 166.263C1066.58 175.546 1061.16 183.681 1054.17 190.668C1047.18 197.656 1039 203.132 1029.61 207.095C1020.33 211.058 1010.47 213.04 1000.04 213.04ZM1000.04 185.349C1006.82 185.349 1013.13 184.098 1018.97 181.595C1024.92 179.092 1030.13 175.546 1034.62 170.957C1039.1 166.472 1042.54 161.309 1044.94 155.469C1047.44 149.524 1048.7 143.266 1048.7 136.696C1048.7 130.125 1047.44 123.919 1044.94 118.079C1042.54 112.134 1039.1 106.919 1034.62 102.434C1030.13 97.9497 1024.92 94.4558 1018.97 91.9527C1013.13 89.4496 1006.82 88.1981 1000.04 88.1981C993.367 88.1981 987.057 89.4496 981.112 91.9527C975.272 94.4558 970.109 97.9497 965.624 102.434C961.14 106.919 957.646 112.134 955.143 118.079C952.64 123.919 951.388 130.125 951.388 136.696C951.388 143.266 952.64 149.524 955.143 155.469C957.646 161.309 961.14 166.472 965.624 170.957C970.109 175.546 975.272 179.092 981.112 181.595C987.057 184.098 993.367 185.349 1000.04 185.349Z" fill="#0F62FE"/>
<path d="M692.474 170.331C700.233 177.968 704.583 182.249 712.342 189.886C719.458 182.864 724.962 174.816 728.925 165.638C732.889 156.46 734.87 146.656 734.87 136.226V75.0568C734.87 71.1979 733.462 67.8605 730.646 65.0445C727.935 62.3328 724.701 60.9769 720.947 60.9769C719.07 60.9769 717.244 61.342 715.471 62.072C713.698 62.8021 712.134 63.7929 710.778 65.0445C707.962 67.8605 706.554 71.1979 706.554 75.0568V136.539C706.554 143.11 705.355 149.315 702.956 155.156C700.453 160.892 696.953 165.959 692.474 170.331Z" fill="#0F62FE"/>
<path d="M14.5009 14.5009L28.6259 169.097C28.6259 169.097 33.3343 211.501 71.0009 211.501C108.668 211.501 165.168 117.691 165.168 91.7991C165.168 65.9068 148.304 53.15 127.501 53.15C106.698 53.15 89.8343 65.9068 89.8343 91.7991C89.8343 117.691 146.334 211.501 184.001 211.501C221.668 211.501 226.376 169.097 226.376 169.097L240.501 14.5009" stroke="#0F62FE" stroke-width="29" stroke-linecap="round"/>
</svg>
